<?xml version="1.0" standalone="no"?><!DOCTYPE svg PUBLIC "-//W3C//DTD SVG 1.1//EN" "http://www.w3.org/Graphics/SVG/1.1/DTD/svg11.dtd"><svg t="1503026712122" class="icon" style="" viewBox="0 0 1000 1000" version="1.1" xmlns="http://www.w3.org/2000/svg" p-id="2491" xmlns:xlink="http://www.w3.org/1999/xlink" width="200" height="200"><defs><style type="text/css"></style></defs><path d="M186.9375 453.125C206.4375 472.5 216.1875 495.875 216.1875 523.125S206.4375 573.75 186.9375 593.125C167.4375 612.5625 144 622.25 116.5625 622.25S65.6875 612.5625 46.1875 593.125C26.6875 573.75 16.9375 550.375 16.9375 523.125s9.75-50.625 29.25-70c19.5625-19.4375 43-29.125 70.375-29.125S167.4375 433.625 186.9375 453.125zM313.6875 168.3125c21.375 21.3125 32.125 47 32.125 77.1875 0 30.125-10.6875 55.875-32.125 77.125S266.4375 354.5625 236.125 354.5625 180 343.875 158.625 322.625 126.5 275.625 126.5 245.5c0-30.1875 10.6875-55.875 32.0625-77.1875 21.375-21.25 47.25-31.9375 77.5625-31.9375S292.3125 147.0625 313.6875 168.3125zM299.375 737.5625c17.625 17.3125 26.4375 38.375 26.4375 63.1875 0 24.8125-8.8125 45.875-26.4375 63.25S260.625 890 236.125 890c-24.875 0-46.0625-8.75-63.5-26.0625-17.4375-17.3125-26.1875-38.375-26.1875-63.25 0-24.75 8.75-45.8125 26.1875-63.1875 17.4375-17.3125 38.625-26.0625 63.5-26.0625C260.625 711.5 281.75 720.1875 299.375 737.5625zM599.9375 42.1875c23.25 23.125 34.875 51.25 34.875 84.3125S623.1875 187.625 599.9375 210.75C576.6875 233.9375 548.375 245.5 515.1875 245.5c-33.25 0-61.4375-11.5625-84.6875-34.75C407.25 187.625 395.625 159.5625 395.625 126.5s11.625-61.1875 34.875-84.3125S481.9375 7.5 515.1875 7.5C548.375 7.5 576.6875 19.0625 599.9375 42.1875zM571.625 863.625c15.5625 15.5 23.3125 34.1875 23.3125 56.0625s-7.75 40.5625-23.3125 56.0625c-15.625 15.5-34.375 23.25-56.375 23.25-22 0-40.8125-7.75-56.375-23.25s-23.375-34.1875-23.375-56.0625 7.8125-40.5625 23.375-56.0625 34.375-23.25 56.375-23.25C537.25 840.375 556 848.125 571.625 863.625zM843.4375 751.75c13.75 13.6875 20.5625 29.9375 20.5625 48.9375 0 19.0625-6.8125 35.3125-20.5625 49-13.6875 13.625-30.0625 20.4375-49.1875 20.4375s-35.5-6.8125-49.1875-20.4375c-13.75-13.6875-20.5625-29.9375-20.5625-49 0-19 6.8125-35.25 20.5625-48.9375 13.6875-13.625 30.0625-20.4375 49.1875-20.4375S829.75 738.1875 843.4375 751.75zM829.4375 210.4375c9.6875 9.6875 14.5625 21.375 14.5625 35.0625 0 13.625-4.875 25.3125-14.5625 35-9.75 9.6875-21.5625 14.5625-35.1875 14.5625-13.75 0-25.4375-4.875-35.1875-14.5625s-14.5625-21.375-14.5625-35c0-13.625 4.8125-25.3125 14.5625-35.0625s21.5-14.5625 35.1875-14.5625C807.9375 195.875 819.6875 200.75 829.4375 210.4375zM956.1875 480.9375c11.6875 11.625 17.4375 25.625 17.4375 42.125s-5.8125 30.625-17.4375 42.125c-11.625 11.625-25.75 17.3125-42.375 17.3125s-30.6875-5.75-42.375-17.3125c-11.625-11.5625-17.375-25.625-17.375-42.125s5.8125-30.5625 17.375-42.125c11.6875-11.5625 25.75-17.3125 42.375-17.3125S944.5625 469.4375 956.1875 480.9375z" p-id="2492"></path></svg>